<!-- Generated by IcoMoon.io -->
<svg version="1.1" xmlns="http://www.w3.org/2000/svg" width="1024" height="1024" viewBox="0 0 1024 1024">
<title></title>
<g id="icomoon-ignore">
</g>
<path fill="#000" d="M636.282 328.801v459.975c0 0 36.828 11.811 83.349 13.776 35.872 1.514 67.383-9.846 67.383-9.846v-393.063l-150.732-70.845z"></path>
<path fill="#000" d="M287.77 248.783c113.435 0 205.395-91.959 205.395-205.397h-410.791c0 113.438 91.959 205.397 205.397 205.397z"></path>
<path fill="#000" d="M64.798 0.002l7.625 12.71v31.139l68.515 733.278 6.917 6.229v27.175l2.507 2.825c0 0 4.686 5.29 9.867 12.621s10.545 16.901 11.856 22.704c2.993 13.255 4.251 68.21 2.609 79.287-1.229 8.291-1.18 14.601-1.753 17.996s-0.369 3.467-3.26 5.393l-0.002 0.002c-5.297 3.532-11.183 7.876-16.061 12.837-2.439 2.48-4.663 5.090-6.409 8.327s-3.233 7.605-1.983 12.597c1.492 5.966 4.588 8.885 9.466 13.009s11.738 8.4 21.161 12.304c18.846 7.809 47.895 14.090 91.751 13.528h0.002c43.264-0.557 78.015-3.721 102.865-8.266 12.425-2.272 22.342-4.847 29.986-7.89s14.422-5.42 17.162-14.556c2.295-7.648 2.735-16.746 3.020-24.747s0.141-14.576 0.141-14.576l0.004 0.218 0.033-170.085c1.677-2.143 3.315-4.854 4.794-8.701l0.002-0.004c0.957-2.488 0.597-2.139 0.701-2.756s0.205-1.304 0.322-2.139c0.233-1.671 0.519-3.914 0.864-6.759 0.69-5.691 1.612-13.753 2.738-23.884 2.251-20.262 5.313-48.784 8.914-82.812 7.203-68.057 16.557-158.14 25.861-248.085s18.557-179.753 25.55-247.239c3.497-33.744 6.429-61.908 8.521-81.712 1.046-9.901 1.883-17.714 2.471-23.073 0.295-2.679 0.526-4.75 0.69-6.131 0.082-0.69 0.147-1.214 0.186-1.504 0.012-0.087 0.011-0.086 0.016-0.118 0.477-1.731 0.404-2.511 0.473-3.622 0.092-1.486 0.139-3.171 0.166-5.077 0.054-3.812 0.018-8.453-0.052-13.003-0.139-9.1-0.417-17.809-0.417-17.809l-0.305-9.634zM92.321 19.9h390.635c0.079 3.121 0.121 3.857 0.182 7.849 0.068 4.445 0.1 8.968 0.052 12.418-0.024 1.725-0.071 3.191-0.129 4.124-0.058 0.931-0.925 2.571 0.374-0.678-0.645 1.616-0.486 1.568-0.533 1.807s-0.068 0.375-0.089 0.504c-0.042 0.259-0.069 0.465-0.101 0.703-0.064 0.479-0.136 1.062-0.224 1.805-0.176 1.486-0.412 3.585-0.71 6.293-0.595 5.414-1.434 13.243-2.481 23.158-2.094 19.831-5.028 48-8.525 81.749-6.995 67.497-16.245 157.303-25.548 247.243s-18.658 180.016-25.857 248.040c-3.599 34.012-6.66 62.513-8.904 82.708-1.122 10.097-2.042 18.122-2.717 23.685-0.337 2.782-0.614 4.955-0.817 6.407-0.065 0.468-0.104 0.71-0.15 1.008-0.718 1.672-1.239 2.549-1.443 2.811l-4.416 1.79-0.035 180.93 0.002 0.108c0 0 0.131 6.058-0.133 13.435-0.24 6.711-1.051 14.317-1.945 18.232-0.293-0.094-1.83 1.75-5.71 3.294-5.641 2.245-14.605 4.682-26.211 6.805-23.211 4.245-57.118 7.397-99.542 7.944-41.832 0.535-68.258-5.543-83.878-12.016-7.81-3.236-12.933-6.582-15.932-9.118-0.976-0.825-1.356-1.45-1.875-2.131 0.553-0.777 1.022-1.517 2.141-2.655 3.224-3.279 8.322-7.174 12.912-10.234v0.002c6.996-4.663 10.768-12.281 11.842-18.637s0.848-11.855 1.817-18.394c2.753-18.582 1.816-65.787-2.881-86.586h-0.002c-2.537-11.227-9.164-21.524-15.015-29.802-3.709-5.248-6.646-8.879-8.726-11.366v-28.632l-7.726-6.957-67.705-724.62zM502.437 49.178c-0.006 0.036-0.005 0.038-0.023 0.133-0.034 0.17 0.099 0.153-0.488 1.639 0.376-0.944 0.354-1.206 0.512-1.771z"></path>
<path fill="#000" d="M161.22 769.584l-6.828 18.69c0 0 65.772 24.236 135.668 24.226 68.178-0.012 124.585-23.264 124.585-23.264l-7.548-18.41c0 0-53.39 21.766-117.039 21.778-65.256 0.010-128.838-23.019-128.838-23.019z"></path>
<path fill="#000" d="M407.097 865.93c0 0-53.39 21.766-117.039 21.778-66.081 0.010-101.083-14.479-101.083-14.479l-7.527 18.419c0 0 39.54 15.966 108.612 15.956 68.178-0.012 124.585-23.264 124.585-23.264z"></path>
<path fill="#000" d="M515.244 0.002l-0.307 9.634c0 0-0.278 8.709-0.417 17.809-0.070 4.55-0.105 9.193-0.052 13.005 0.027 1.906 0.074 3.59 0.166 5.077 0.069 1.111-0.008 1.893 0.473 3.63 0.005 0.035 0.005 0.028 0.016 0.106 0.038 0.292 0.104 0.816 0.186 1.506 0.163 1.381 0.396 3.45 0.69 6.129 0.589 5.359 1.423 13.174 2.469 23.075 2.091 19.803 5.024 47.968 8.521 81.712 6.993 67.486 16.247 157.293 25.55 247.239s18.658 180.027 25.861 248.085c3.601 34.029 6.663 62.55 8.914 82.812 1.126 10.131 2.049 18.193 2.738 23.884 0.345 2.845 0.631 5.088 0.864 6.759 0.116 0.835 0.218 1.519 0.322 2.137s-0.259 0.259 0.701 2.758v0.002c1.48 3.848 3.12 6.559 4.798 8.703l0.031 170.085 0.002-0.218c0 0-0.144 6.576 0.143 14.578s0.727 17.098 3.022 24.747c2.741 9.134 9.518 11.512 17.162 14.554s17.562 5.618 29.986 7.89c24.849 4.545 59.6 7.709 102.865 8.266 43.854 0.562 72.905-5.719 91.751-13.528 9.423-3.904 16.282-8.18 21.161-12.304s7.976-7.044 9.468-13.014c1.247-4.991-0.241-9.357-1.987-12.591s-3.969-5.846-6.407-8.327c-4.878-4.961-10.764-9.305-16.059-12.837l-0.002-0.002c-2.89-1.926-2.686-1.998-3.26-5.393s-0.523-9.706-1.753-17.998c-1.643-11.075-0.388-66.033 2.605-79.285 1.31-5.802 6.673-15.372 11.854-22.704s9.867-12.621 9.867-12.621l2.507-2.825v-27.173l6.921-6.229 68.514-733.28v-29.775l14.074-14.074zM534.598 19.9h390.631v23.023l-67.703 724.618-7.73 6.959v28.632c-2.080 2.487-5.017 6.117-8.726 11.366-5.85 8.279-12.478 18.574-15.013 29.802-4.699 20.802-5.637 68.004-2.881 86.588 0.97 6.538 0.743 12.036 1.817 18.392s4.847 13.973 11.844 18.637c4.588 3.060 9.686 6.955 12.91 10.232 1.119 1.138 1.588 1.878 2.141 2.655-0.518 0.68-0.897 1.307-1.873 2.131-2.999 2.536-8.122 5.881-15.932 9.118-15.621 6.473-42.048 12.551-83.88 12.016-42.423-0.546-76.329-3.699-99.539-7.944-11.605-2.123-20.57-4.56-26.211-6.805-3.877-1.543-5.415-3.384-5.71-3.294-0.895-3.913-1.708-11.522-1.947-18.234-0.263-7.377-0.135-13.433-0.135-13.433l0.002-0.108-0.033-180.93-4.416-1.79c-0.203-0.262-0.726-1.141-1.443-2.809-0.047-0.3-0.085-0.542-0.15-1.010-0.202-1.453-0.481-3.626-0.819-6.407-0.674-5.563-1.592-13.589-2.715-23.685-2.244-20.194-5.305-48.696-8.904-82.708-7.199-68.024-16.551-158.099-25.855-248.040s-18.556-179.746-25.55-247.243c-3.497-33.749-6.43-61.918-8.525-81.749-1.047-9.915-1.885-17.744-2.479-23.158-0.298-2.708-0.534-4.807-0.71-6.293-0.088-0.743-0.16-1.324-0.224-1.803-0.032-0.24-0.060-0.445-0.101-0.703-0.020-0.13-0.042-0.264-0.089-0.502-0.047-0.235 0.088-0.233-0.522-1.775 1.242 3.113 0.419 1.563 0.361 0.643-0.058-0.931-0.106-2.4-0.131-4.124-0.049-3.449-0.016-7.973 0.052-12.418 0.061-3.991 0.104-4.728 0.184-7.849zM515.117 49.186c0.162 0.58 0.135 0.835 0.527 1.815l-0.008-0.021c-0.634-1.591-0.464-1.499-0.498-1.672-0.017-0.086-0.015-0.084-0.021-0.12zM618.988 987.511c0.004 0.012 0.002 0.009 0.006 0.021h-0.002c-0.001-0.004-0.003-0.017-0.004-0.021z"></path>
<path fill="#000" d="M524.487 33.438v19.898h410.691v-19.898z"></path>
<path fill="#000" d="M856.332 769.584c0 0-63.582 23.030-128.836 23.019-63.651-0.012-117.043-21.778-117.043-21.778l-7.548 18.41c0 0 56.41 23.252 124.589 23.264 69.894 0.010 135.666-24.226 135.666-24.226z"></path>
<path fill="#000" d="M610.453 865.93l-7.548 18.41c0 0 56.41 23.252 124.589 23.264 69.069 0.010 108.61-15.956 108.61-15.956l-7.527-18.419c0 0-35.003 14.489-101.081 14.479-63.651-0.012-117.043-21.778-117.043-21.778z"></path>
</svg>
